<svg width="117" height="36" viewBox="0 0 117 36" fill="none" xmlns="http://www.w3.org/2000/svg">
<g clip-path="url(#clip0_290_358)">
<path fill-rule="evenodd" clip-rule="evenodd" d="M112.355 35.405H4.58016C2.19309 35.405 0.249023 33.4606 0.249023 31.0925V5.21753C0.249023 2.84081 2.19309 0.905029 4.58016 0.905029H112.355C114.74 0.905029 116.687 2.84081 116.687 5.21753V31.0925C116.687 33.4606 114.74 35.405 112.355 35.405Z" fill="black"/>
<path fill-rule="evenodd" clip-rule="evenodd" d="M112.355 1.59546C114.358 1.59546 115.996 3.22367 115.996 5.21753V31.0925C115.996 33.0864 114.368 34.7146 112.355 34.7146H4.58016C2.57803 34.7146 0.939339 33.0864 0.939339 31.0925V5.21753C0.939339 3.22367 2.56728 1.59546 4.58016 1.59546H112.355ZM112.355 0.905029H4.58016C2.19309 0.905029 0.249023 2.84942 0.249023 5.21753V31.0925C0.249023 33.4692 2.19309 35.405 4.58016 35.405H112.355C114.74 35.405 116.687 33.4692 116.687 31.0925V5.21753C116.687 2.84942 114.74 0.905029 112.355 0.905029Z" fill="#A6A6A6"/>
<path d="M58.8419 19.6104C56.8193 19.6104 55.1708 21.148 55.1708 23.2677C55.1708 25.3737 56.8193 26.925 58.8419 26.925C60.8644 26.925 62.5129 25.3737 62.5129 23.2677C62.5129 21.148 60.8644 19.6104 58.8419 19.6104ZM58.8419 25.4846C57.7334 25.4846 56.7772 24.5705 56.7772 23.2677C56.7772 21.9511 57.7334 21.0508 58.8419 21.0508C59.9503 21.0508 60.9057 21.9511 60.9057 23.2677C60.9057 24.5696 59.9503 25.4846 58.8419 25.4846ZM50.8325 19.6104C48.8099 19.6104 47.1615 21.148 47.1615 23.2677C47.1615 25.3737 48.8099 26.925 50.8325 26.925C52.8551 26.925 54.5035 25.3737 54.5035 23.2677C54.5044 21.148 52.8551 19.6104 50.8325 19.6104ZM50.8325 25.4846C49.7241 25.4846 48.7687 24.5705 48.7687 23.2677C48.7687 21.9511 49.7249 21.0508 50.8325 21.0508C51.9409 21.0508 52.8963 21.9511 52.8963 23.2677C52.8972 24.5696 51.9409 25.4846 50.8325 25.4846ZM41.3062 20.7326V22.2839H45.0194C44.9085 23.1568 44.6178 23.794 44.1741 24.2377C43.634 24.7777 42.7887 25.3737 41.3062 25.3737C39.0205 25.3737 37.2336 23.5308 37.2336 21.2451C37.2336 18.9595 39.0205 17.1166 41.3062 17.1166C42.5393 17.1166 43.4397 17.6016 44.1044 18.2251L45.1991 17.1304C44.2712 16.2438 43.0381 15.5645 41.3062 15.5645C38.1752 15.5645 35.543 18.1133 35.543 21.2443C35.543 24.3753 38.1752 26.9241 41.3062 26.9241C42.996 26.9241 44.2712 26.3703 45.2688 25.3307C46.2938 24.3056 46.6128 22.8644 46.6128 21.7009C46.6128 21.3406 46.5853 21.0078 46.5294 20.7309H41.3062V20.7326ZM80.2679 21.9374C79.9634 21.1196 79.0347 19.6096 77.1369 19.6096C75.2528 19.6096 73.6877 21.0921 73.6877 23.2668C73.6877 25.3169 75.239 26.9241 77.3174 26.9241C78.9934 26.9241 79.9634 25.8991 80.365 25.3031L79.1181 24.4716C78.7028 25.0813 78.1344 25.4829 77.3174 25.4829C76.4996 25.4829 75.9183 25.1088 75.5443 24.3744L80.4347 22.3519L80.2679 21.9374ZM75.2803 23.1568C75.239 21.7439 76.375 21.0233 77.1919 21.0233C77.8291 21.0233 78.3691 21.3415 78.5497 21.7989L75.2803 23.1568ZM71.304 26.7031H72.9112V15.9531H71.304V26.7031ZM68.6717 20.4273H68.6167C68.2564 19.9982 67.5641 19.6096 66.6913 19.6096C64.8622 19.6096 63.1862 21.2168 63.1862 23.2806C63.1862 25.3307 64.8622 26.9241 66.6913 26.9241C67.5641 26.9241 68.2564 26.5363 68.6167 26.0926H68.6717V26.6188C68.6717 28.0179 67.9236 28.7661 66.718 28.7661C65.7342 28.7661 65.1245 28.0592 64.8751 27.4641L63.476 28.0463C63.8776 29.0163 64.9448 30.2073 66.718 30.2073C68.6021 30.2073 70.1955 29.0989 70.1955 26.3978V19.8314H68.6717V20.4273ZM66.8298 25.4846C65.7213 25.4846 64.7934 24.5567 64.7934 23.2815C64.7934 21.9933 65.7213 21.0508 66.8298 21.0508C67.9244 21.0508 68.7826 21.9924 68.7826 23.2815C68.7826 24.5559 67.9244 25.4846 66.8298 25.4846ZM87.7957 15.9531H83.9509V26.7031H85.5547V22.6305H87.7948C89.5731 22.6305 91.3214 21.3432 91.3214 19.2922C91.3214 17.2413 89.574 15.9531 87.7957 15.9531ZM87.8369 21.1342H85.5547V17.4494H87.8369C89.0365 17.4494 89.7176 18.4426 89.7176 19.2922C89.7176 20.1247 89.0365 21.1342 87.8369 21.1342ZM97.7536 19.5906C96.5919 19.5906 95.3888 20.1023 94.8909 21.2365L96.3158 21.8316C96.6203 21.2365 97.187 21.0431 97.782 21.0431C98.6119 21.0431 99.4554 21.541 99.4692 22.4258V22.5368C99.1785 22.3708 98.556 22.1214 97.7958 22.1214C96.2608 22.1214 94.6975 22.965 94.6975 24.5421C94.6975 25.9808 95.9564 26.9069 97.3667 26.9069C98.4459 26.9069 99.0401 26.4228 99.4133 25.8561H99.4683V26.6859H101.017V22.5643C101.017 20.6552 99.593 19.5906 97.7536 19.5906ZM97.5593 25.482C97.0339 25.482 96.3004 25.2189 96.3004 24.5696C96.3004 23.7398 97.2136 23.4216 98.0013 23.4216C98.7064 23.4216 99.0384 23.5738 99.4675 23.7811C99.3437 24.7769 98.4863 25.482 97.5593 25.482ZM106.66 19.8254L104.821 24.4862H104.766L102.857 19.8254H101.129L103.992 26.3394L102.359 29.9631H104.033L108.445 19.8254H106.66ZM92.2071 26.7031H93.8117V15.9531H92.2071V26.7031Z" fill="white"/>
<path d="M18.0651 17.6089L8.90942 27.3261C8.91028 27.3278 8.91028 27.3295 8.91114 27.3312C9.19148 28.3872 10.1555 29.1638 11.2992 29.1638C11.7566 29.1638 12.1858 29.0399 12.5538 28.8232L12.583 28.806L22.8884 22.8596L18.0651 17.6089Z" fill="#EB4335"/>
<path d="M27.3275 15.9545L27.3189 15.9484L22.8696 13.3687L17.8571 17.8291L22.8868 22.858L27.3128 20.3048C28.0885 19.8861 28.6148 19.0683 28.6148 18.1249C28.6148 17.1885 28.0954 16.3741 27.3275 15.9545Z" fill="#FABC13"/>
<path d="M8.90947 8.8833C8.85443 9.08624 8.8252 9.29865 8.8252 9.51965V26.6898C8.8252 26.9109 8.85357 27.1241 8.90947 27.3262L18.3799 17.8575L8.90947 8.8833Z" fill="#547DBF"/>
<path d="M18.1322 18.1043L22.8712 13.367L12.577 7.39909C12.203 7.17464 11.767 7.04565 11.2992 7.04565C10.1555 7.04565 9.19062 7.82389 8.90942 8.88074V8.88332L18.1322 18.1043Z" fill="#30A851"/>
<path d="M41.1106 9.34972H38.6025V9.97158H40.4819C40.431 10.477 40.2283 10.8746 39.8893 11.1636C39.5495 11.4525 39.1157 11.5974 38.6025 11.5974C38.0384 11.5974 37.5614 11.4025 37.1716 11.0118C36.7886 10.6141 36.5928 10.1234 36.5928 9.52998C36.5928 8.93744 36.7886 8.44582 37.1716 8.0482C37.5614 7.65835 38.0384 7.46343 38.6025 7.46343C38.8914 7.46343 39.1665 7.51345 39.4193 7.62213C39.672 7.7308 39.8747 7.8826 40.0334 8.07753L40.5103 7.60057C40.2938 7.35475 40.0187 7.16673 39.6797 7.02959C39.3399 6.89245 38.9854 6.8269 38.6025 6.8269C37.8504 6.8269 37.2147 7.08738 36.6946 7.60747C36.1737 8.12842 35.9141 8.77098 35.9141 9.52998C35.9141 10.289 36.1737 10.9324 36.6946 11.4525C37.2147 11.9734 37.8504 12.2331 38.6025 12.2331C39.3899 12.2331 40.0187 11.9803 40.5034 11.4672C40.9295 11.0411 41.1468 10.4623 41.1468 9.73957C41.1468 9.61709 41.1322 9.48685 41.1106 9.34972Z" fill="white"/>
<path d="M42.1008 6.94248V12.1175H45.1221V11.4818H42.7658V9.84134H44.8901V9.21948H42.7658V7.57901H45.1221V6.94248H42.1008Z" fill="white"/>
<path d="M49.3708 7.57901V6.94248H45.8147V7.57901H47.2603V12.1175H47.9252V7.57901H49.3708Z" fill="white"/>
<path d="M52.6094 6.94248H51.9444V12.1175H52.6094V6.94248Z" fill="white"/>
<path d="M57.0039 7.57901V6.94248H53.4478V7.57901H54.8934V12.1175H55.5583V7.57901H57.0039Z" fill="white"/>
<path d="M63.7331 7.61523C63.22 7.08738 62.5912 6.8269 61.8391 6.8269C61.0878 6.8269 60.4582 7.08738 59.945 7.60747C59.4319 8.12065 59.1791 8.76408 59.1791 9.52998C59.1791 10.2967 59.4319 10.9393 59.945 11.4525C60.4582 11.9734 61.0878 12.2331 61.8391 12.2331C62.5834 12.2331 63.22 11.9734 63.7331 11.4525C64.2463 10.9393 64.499 10.2967 64.499 9.52998C64.499 8.77098 64.2463 8.12842 63.7331 7.61523ZM60.4229 8.0482C60.8058 7.65835 61.275 7.46343 61.8391 7.46343C62.4032 7.46343 62.8724 7.65835 63.2484 8.0482C63.6314 8.43202 63.8194 8.93054 63.8194 9.52998C63.8194 10.1303 63.6314 10.6288 63.2484 11.0118C62.8724 11.4025 62.4032 11.5974 61.8391 11.5974C61.275 11.5974 60.8058 11.4025 60.4229 11.0118C60.0468 10.6219 59.8588 10.1303 59.8588 9.52998C59.8588 8.93054 60.0468 8.43892 60.4229 8.0482Z" fill="white"/>
<path d="M66.0964 8.89432L66.0679 7.89641H66.0964L68.7279 12.1175H69.4213V6.94248H68.7563V9.97158L68.7857 10.9686H68.7563L66.2413 6.94248H65.4323V12.1175H66.0964V8.89432Z" fill="white"/>
</g>
<defs>
<clipPath id="clip0_290_358">
<rect width="116.438" height="34.5" fill="white" transform="translate(0.25 0.905029)"/>
</clipPath>
</defs>
</svg>
